<svg width="200" height="50" viewBox="0 0 200 50" fill="none" xmlns="http://www.w3.org/2000/svg">

    <g>
        <!-- Blue Background Box -->
        <rect x="0" y="5" width="40" height="40" rx="8" fill="#2563EB"/>
        <!-- Glow/Shadow Effect (Optional, simulated with opacity) -->
        <rect x="0" y="5" width="40" height="40" rx="8" fill="#3B82F6" fill-opacity="0.3" stroke="#3B82F6" stroke-width="2" stroke-opacity="0"/>
        
        <!-- The Movie Symbol -->
        <g transform="translate(8, 13) scale(1)">
            <path d="M18 4L20 8H17L15 4H13L15 8H12L10 4H8L10 8H7L5 4H4C2.9 4 2.01 4.9 2.01 6L2 18C2 19.1 2.9 20 4 20H20C21.1 20 22 19.1 22 18V4H18Z" fill="white"/>
        </g>
    </g>


    <text x="52" y="34" font-family="'Inter', -apple-system, BlinkMacSystemFont, 'Segoe UI', Roboto, sans-serif" font-weight="900" font-size="26" letter-spacing="-0.5" fill="#F1F5F9">
        Ani
    </text>
    
    <text x="96" y="34" font-family="'Inter', -apple-system, BlinkMacSystemFont, 'Segoe UI', Roboto, sans-serif" font-weight="900" font-size="26" letter-spacing="-0.5" fill="#3B82F6">
        Clips
    </text>
</svg>